<?xml version="1.0" encoding="UTF-8"?>
<svg width="200px" height="200px" viewBox="0 0 200 200" version="1.1" xmlns="http://www.w3.org/2000/svg" xmlns:xlink="http://www.w3.org/1999/xlink">
    <!-- Generator: Sketch 52.2 (67145) - http://www.bohemiancoding.com/sketch -->
    <title>1</title>
    <desc>Created with Sketch.</desc>
    <g id="页面-1" stroke="none" stroke-width="1" fill="none" fill-rule="evenodd">
        <g id="BOS-logo" transform="translate(-160.000000, -180.000000)" fill-rule="nonzero">
            <g id="分组-7" transform="translate(160.000000, 180.000000)">
                <g id="分组">
                    <circle id="Oval" fill="#FFFFFF" cx="100" cy="100" r="100"></circle>
                    <g id="Group-Copy" transform="translate(22.385862, 27.098675)" fill="#228BE9">
                        <path d="M75.2496042,54.2024715 C79.6385688,60.8855608 87.0172745,65.4296632 95.4837813,65.9328391 L95.4736068,66.0136277 C96.0269613,65.9908713 96.5832227,65.9793814 97.1421677,65.9793814 C119.184755,65.9793814 137.053802,83.848429 137.053802,105.891016 C137.053802,127.933603 119.184755,145.802651 97.1421677,145.802651 C78.9916707,145.802651 63.6709783,133.686817 58.8264728,117.101531 C63.4206348,114.816619 67.5877587,111.801683 71.1760317,108.208536 C72.3487015,121.519747 83.5263533,131.958763 97.1421677,131.958763 C111.538987,131.958763 123.209914,120.287835 123.209914,105.891016 C123.209914,91.4941972 111.538987,79.8232695 97.1421677,79.8232695 C88.2151584,79.8232695 80.3362121,84.3105609 75.6378849,91.1525877 C69.0386268,104.095997 55.5839454,112.960236 40.0589102,112.960236 C18.0163229,112.960236 0.147275405,95.0911881 0.147275405,73.0486009 C0.147275405,51.0060137 18.0163229,33.1369661 40.0589102,33.1369661 C46.2126201,33.1369661 52.041053,34.5296428 57.2462189,37.0170064 C58.7292027,16.325688 75.9853129,0 97.0544919,0 C119.097079,0 136.966127,17.8690475 136.966127,39.9116348 C136.966127,49.9101715 133.289503,59.0499868 127.214459,66.0528779 C123.946461,62.7482324 120.139248,59.9779282 115.935613,57.8847595 C120.388721,53.2081169 123.122239,46.8790994 123.122239,39.9116348 C123.122239,25.5148158 111.451311,13.8438881 97.0544919,13.8438881 C82.6576729,13.8438881 70.9867452,25.5148158 70.9867452,39.9116348 C70.9867452,44.1909665 72.0179008,48.2294589 73.8452972,51.7921972 C74.3404492,52.5775736 74.808974,53.3814209 75.2496042,54.2024715 Z M61.8637978,58.7577641 C57.205467,51.6645101 49.1791518,46.9808542 40.0589102,46.9808542 C25.6620912,46.9808542 13.9911635,58.6517819 13.9911635,73.0486009 C13.9911635,87.4454198 25.6620912,99.1163476 40.0589102,99.1163476 C48.9859195,99.1163476 56.8648658,94.6290562 61.563193,87.7870294 C62.186218,86.5650636 62.870345,85.3794552 63.6115475,84.2342305 C65.2241716,80.844705 66.1266568,77.0520463 66.1266568,73.0486009 C66.1266568,68.7692692 65.0955013,64.7307767 63.2681049,61.1680384 C62.772952,60.3826606 62.3044276,59.578814 61.8637978,58.7577641 Z" id="Combined-Shape"></path>
                    </g>
                </g>
            </g>
        </g>
    </g>
</svg>