<?xml version="1.0" encoding="UTF-8"?>
<svg width="754px" height="160px" viewBox="0 0 754 160" version="1.1" xmlns="http://www.w3.org/2000/svg" xmlns:xlink="http://www.w3.org/1999/xlink">
    <!-- Generator: Sketch 52.2 (67145) - http://www.bohemiancoding.com/sketch -->
    <title>6</title>
    <desc>Created with Sketch.</desc>
    <g id="页面-1" stroke="none" stroke-width="1" fill="none" fill-rule="evenodd">
        <g id="BOS-logo" transform="translate(-160.000000, -1460.000000)" fill="#228BE9">
            <g id="分组-7" transform="translate(160.000000, 180.000000)">
                <g id="分组-4" transform="translate(0.000000, 1280.000000)">
                    <g id="Group-Copy" transform="translate(0.000000, 0.000000)">
                        <path d="M83.3821018,59.3142225 C88.2549347,66.6275835 96.4471172,71.6002332 105.847027,72.1508628 L105.835731,72.2392704 C106.450091,72.2143679 107.067678,72.2017945 107.688245,72.2017945 C132.160952,72.2017945 152,91.7560442 152,115.877434 C152,139.998823 132.160952,159.553073 107.688245,159.553073 C87.5367182,159.553073 70.5269723,146.294613 65.1483768,128.145195 C70.2490292,125.644797 74.8755642,122.345526 78.859432,118.413515 C80.1613846,132.980086 92.5713339,144.403589 107.688245,144.403589 C123.672264,144.403589 136.629871,131.631994 136.629871,115.877434 C136.629871,100.122873 123.672264,87.3512781 107.688245,87.3512781 C97.7770636,87.3512781 89.0294906,92.261759 83.8131891,99.7490467 C76.4863855,113.913128 61.5483719,123.61334 44.311755,123.61334 C19.8390485,123.61334 0,104.05909 0,79.937701 C0,55.8163116 19.8390485,36.262062 44.311755,36.262062 C51.1438903,36.262062 57.6148878,37.7860799 63.3939053,40.5080228 C65.0403829,17.8653383 84.1989199,0 107.590903,0 C132.06361,0 151.902658,19.5542497 151.902658,43.6756391 C151.902658,54.6171223 147.8207,64.6188994 141.075903,72.2822222 C137.44762,68.6659208 133.220674,65.6343535 128.553603,63.3437813 C133.497651,58.2260918 136.532529,51.3001945 136.532529,43.6756391 C136.532529,27.9210785 123.574922,15.1494837 107.590903,15.1494837 C91.6068846,15.1494837 78.6492773,27.9210785 78.6492773,43.6756391 C78.6492773,48.3585479 79.7941142,52.7779043 81.8229748,56.676639 C82.3727156,57.536083 82.8928937,58.4157398 83.3821018,59.3142225 Z M68.5205564,64.2991176 C63.3486607,56.5369099 54.4374719,51.4115456 44.311755,51.4115456 C28.3277363,51.4115456 15.370129,64.1831404 15.370129,79.937701 C15.370129,95.6922616 28.3277363,108.463856 44.311755,108.463856 C54.2229364,108.463856 62.9705094,103.553376 68.1868109,96.0660879 C68.8785223,94.7288804 69.6380719,93.431459 70.4609895,92.17823 C72.2513998,88.4690436 73.2533809,84.3187052 73.2533809,79.937701 C73.2533809,75.2547922 72.108544,70.8354358 70.0796835,66.9367011 C69.5299417,66.0772556 69.0097641,65.1975995 68.5205564,64.2991176 Z" id="Combined-Shape" fill-rule="nonzero"></path>
                        <path d="M233.466716,73.4691996 C238.212169,73.4691996 241.903021,72.8078739 244.539384,71.4852026 C248.68224,69.4067193 250.753637,65.6655053 250.753637,60.2614485 C250.753637,54.819601 248.550424,51.1539671 244.143932,49.2644368 C241.658218,48.2062998 237.967366,47.6772392 233.071263,47.6772392 L213.016175,47.6772392 L213.016175,73.4691996 L233.466716,73.4691996 Z M237.251761,111.902055 C244.143966,111.902055 249.058826,109.899183 251.996487,105.893378 C253.841941,103.361408 254.764655,100.300414 254.764655,96.7103068 C254.764655,90.6638096 252.071839,86.5446952 246.686126,84.35284 C243.823789,83.1813312 240.038782,82.5955856 235.330992,82.5955856 L213.016175,82.5955856 L213.016175,111.902055 L237.251761,111.902055 Z M202,38.2674251 L237.647213,38.2674251 C247.364093,38.2674251 254.275026,41.1772582 258.38022,46.9970117 C260.790609,50.4359569 261.995785,54.4039112 261.995785,58.9009934 C261.995785,64.1538878 260.508145,68.4619524 257.532822,71.8253164 C255.988666,73.6014749 253.766622,75.2264467 250.866623,76.7002803 C255.122466,78.3252765 258.304885,80.1580934 260.413975,82.1987862 C264.142545,85.8266845 266.006803,90.8338648 266.006803,97.2204774 C266.006803,102.586744 264.330854,107.442764 260.978907,111.788684 C255.969818,118.288668 248.004355,121.538611 237.082281,121.538611 L202,121.538611 L202,38.2674251 Z M313.245352,36 C327.895997,36 338.742584,40.723755 345.785439,50.1714068 C351.284139,57.5405752 354.033447,66.9691902 354.033447,78.4575348 C354.033447,90.8906445 350.88869,101.226221 344.599082,109.464573 C337.217266,119.138968 326.690804,123.976093 313.019379,123.976093 C300.251851,123.976093 290.214992,119.743609 282.908501,111.278513 C276.392918,103.115742 273.135176,92.7990608 273.135176,80.3281605 C273.135176,69.0665596 275.922146,59.4300993 281.49617,51.4184906 C288.652012,41.1394455 299.234967,36 313.245352,36 Z M314.375216,113.886052 C324.280408,113.886052 331.445558,110.324341 335.870881,103.200811 C340.296205,96.0772816 342.508833,87.8862904 342.508833,78.6275917 C342.508833,68.8398244 339.957249,60.960601 334.854004,54.9896851 C329.750758,49.0187692 322.773917,46.033356 313.923271,46.033356 C305.33626,46.033356 298.331173,48.9904267 292.907798,54.9046567 C287.484423,60.8188867 284.772776,69.5389385 284.772776,81.0650736 C284.772776,90.2859818 287.09839,98.0612826 291.749687,104.391209 C296.400985,110.721136 303.942752,113.886052 314.375216,113.886052 Z M372.742928,94.6696242 C373.006564,99.3934501 374.117586,103.229139 376.076027,106.176807 C379.804597,111.694235 386.376574,114.452908 395.792156,114.452908 C400.010336,114.452908 403.851836,113.848267 407.31677,112.638968 C414.020664,110.29595 417.37256,106.101256 417.37256,100.054759 C417.37256,95.5198859 415.960244,92.2888375 413.13557,90.3615165 C410.273233,88.4719862 405.791484,86.8281194 399.690187,85.4298669 L388.448039,82.8790137 C381.103885,81.216227 375.906562,79.3834101 372.855914,77.3805079 C367.583188,73.903772 364.946865,68.7076415 364.946865,61.7919604 C364.946865,54.3094202 367.526696,48.1685386 372.686434,43.3691315 C377.846173,38.5697244 385.152555,36.1700569 394.605798,36.1700569 C403.305796,36.1700569 410.696916,38.2768516 416.779382,42.4905043 C422.861847,46.704157 425.903035,53.4402317 425.903035,62.6989304 L415.338805,62.6989304 C414.77387,58.2396388 413.568694,54.8196401 411.72324,52.4388319 C408.295968,48.0929121 402.477226,45.9199848 394.266839,45.9199848 C387.63827,45.9199848 382.874057,47.3182163 379.974058,50.1147212 C377.074059,52.9112261 375.624081,56.1611696 375.624081,59.8646491 C375.624081,63.9460346 377.31886,66.9314478 380.70847,68.8209782 C382.930547,70.0302776 387.958392,71.5418792 395.792156,73.3558283 L407.429756,76.0200528 C413.041443,77.3049335 417.372545,79.0621703 420.423194,81.2918162 C425.695919,85.1842487 428.332242,90.8338597 428.332242,98.2408187 C428.332242,107.461727 424.989761,114.056089 418.304698,118.024103 C411.619636,121.992116 403.851897,123.976093 395.001251,123.976093 C384.681774,123.976093 376.603326,121.330791 370.765665,116.040106 C364.928005,110.787211 362.065711,103.663789 362.178698,94.6696242 L372.742928,94.6696242 Z M475.514299,36 C486.022088,36 494.175859,38.777568 499.975857,44.3327872 C505.775855,49.8880064 508.995936,56.1989432 509.636195,63.2657867 L498.676513,63.2657867 C497.433657,57.8995205 494.957396,53.648141 491.247657,50.5115206 C487.537918,47.3749002 482.331179,45.8066135 475.627285,45.8066135 C467.454561,45.8066135 460.854337,48.6881041 455.826417,54.4511717 C450.798496,60.2142392 448.284574,69.0476612 448.284574,80.9517024 C448.284574,90.701679 450.553695,98.6092449 455.092005,104.674637 C459.630315,110.74003 466.400017,113.772681 475.401313,113.772681 C483.687024,113.772681 489.995369,110.579422 494.326537,104.19281 C496.623938,100.829446 498.337549,96.4080108 499.467418,90.9283728 L510.4271,90.9283728 C509.44788,99.6957936 506.208968,107.045956 500.710269,112.979082 C494.119362,120.121507 485.231186,123.692665 474.045476,123.692665 C464.40392,123.692665 456.306642,120.763937 449.753397,114.906393 C441.128724,107.159319 436.816453,95.1987709 436.816453,79.0243911 C436.816453,66.7424438 440.055364,56.671398 446.533284,48.8109518 C453.538477,40.2702745 463.198718,36 475.514299,36 Z M557.891623,36 C572.542268,36 583.388855,40.723755 590.43171,50.1714068 C595.930409,57.5405752 598.679718,66.9691902 598.679718,78.4575348 C598.679718,90.8906445 595.534961,101.226221 589.245352,109.464573 C581.863536,119.138968 571.337074,123.976093 557.66565,123.976093 C544.898122,123.976093 534.861262,119.743609 527.554771,111.278513 C521.039189,103.115742 517.781446,92.7990608 517.781446,80.3281605 C517.781446,69.0665596 520.568417,59.4300993 526.142441,51.4184906 C533.298283,41.1394455 543.881238,36 557.891623,36 Z M559.021487,113.886052 C568.926679,113.886052 576.091829,110.324341 580.517152,103.200811 C584.942475,96.0772816 587.155104,87.8862904 587.155104,78.6275917 C587.155104,68.8398244 584.603519,60.960601 579.500274,54.9896851 C574.397029,49.0187692 567.420188,46.033356 558.569541,46.033356 C549.982531,46.033356 542.977444,48.9904267 537.554069,54.9046567 C532.130694,60.8188867 529.419047,69.5389385 529.419047,81.0650736 C529.419047,90.2859818 531.744661,98.0612826 536.395958,104.391209 C541.047255,110.721136 548.589023,113.886052 559.021487,113.886052 Z M648.629941,76.4168522 C653.902667,76.4168522 658.073707,75.3587311 661.143186,73.2424571 C664.212666,71.1261831 665.747383,67.309389 665.747383,61.7919604 C665.747383,55.8588351 663.600662,51.8153008 659.307157,49.6612362 C657.009755,48.5275179 653.940322,47.9606673 650.098765,47.9606673 L622.643066,47.9606673 L622.643066,76.4168522 L648.629941,76.4168522 Z M611.400918,38.2674251 L649.816299,38.2674251 C656.143569,38.2674251 661.359723,39.1932811 665.464917,41.0450208 C673.261018,44.5973379 677.15901,51.1539099 677.15901,60.7149335 C677.15901,65.7032936 676.132727,69.784618 674.080131,72.959029 C672.027534,76.1334399 669.155825,78.6842677 665.464917,80.6115886 C668.703877,81.9342599 671.142476,83.6726017 672.780787,85.8266663 C674.419098,87.9807309 675.332396,91.4763097 675.520707,96.3135074 L677.15901,121.538611 L666.297307,121.653151 L664.391546,98.2975043 C664.127909,92.8556569 662.113005,89.208918 658.346773,87.3571783 C656.20002,86.3368319 652.829293,85.8266663 648.234489,85.8266663 L622.643066,85.8266663 L622.643066,121.538611 L611.400918,121.538611 L611.400918,38.2674251 Z M692.648378,38.2674251 L753.152602,38.2674251 L753.152602,48.470838 L703.60806,48.470838 L703.60806,73.7526277 L749.42405,73.7526277 L749.42405,83.3891844 L703.60806,83.3891844 L703.60806,111.618627 L754,111.618627 L754,121.538611 L692.648378,121.538611 L692.648378,38.2674251 Z" id="BOSCORE"></path>
                    </g>
                </g>
            </g>
        </g>
    </g>
</svg>