<?xml version="1.0" encoding="UTF-8"?>
<svg width="159px" height="159px" viewBox="0 0 159 159" version="1.1" xmlns="http://www.w3.org/2000/svg" xmlns:xlink="http://www.w3.org/1999/xlink">
    <!-- Generator: Sketch 52.2 (67145) - http://www.bohemiancoding.com/sketch -->
    <title>logo白色</title>
    <desc>Created with Sketch.</desc>
    <g id="页面-1" stroke="none" stroke-width="1" fill="none" fill-rule="evenodd">
        <g id="BOS-logo" transform="translate(-1121.000000, -660.000000)" fill="#228BE9" fill-rule="nonzero">
            <g id="分组-7" transform="translate(160.000000, 180.000000)">
                <g id="分组-8" transform="translate(750.000000, 480.000000)">
                    <g id="logo白色" transform="translate(214.000000, 0.000000)">
                        <g id="Group-Copy-2">
                            <path d="M83.764839,58.984699 C88.6104921,66.2574303 96.7569802,71.2024541 106.104459,71.7500247 L106.093226,71.8379412 C106.704159,71.813177 107.318302,71.8006734 107.935407,71.8006734 C132.27161,71.8006734 152,91.2462884 152,115.23367 C152,139.221052 132.27161,158.666667 107.935407,158.666667 C87.8962817,158.666667 70.9814128,145.481865 65.632818,127.433277 C70.7050201,124.94677 75.3057492,121.665829 79.2673957,117.755662 C80.5620862,132.241308 92.9028153,143.601347 107.935407,143.601347 C123.83027,143.601347 136.715603,130.900705 136.715603,115.23367 C136.715603,99.5666348 123.83027,86.8659933 107.935407,86.8659933 C98.0795085,86.8659933 89.3807277,91.7491937 84.1935217,99.1948853 C76.9075856,113.280278 62.0528933,122.926599 44.9124188,122.926599 C20.5762162,122.926599 0.847826087,103.480984 0.847826087,79.4936027 C0.847826087,55.506221 20.5762162,36.0606061 44.9124188,36.0606061 C51.7064458,36.0606061 58.1413494,37.5761572 63.8881327,40.2829782 C65.5254266,17.7660864 84.577101,0 107.838608,0 C132.174811,0 151.903201,19.445615 151.903201,43.4329966 C151.903201,54.3136939 147.844011,64.2599055 141.136835,71.8806543 C137.52879,68.2844435 133.325421,65.2697183 128.684382,62.9918714 C133.600853,57.9026136 136.618804,51.0151935 136.618804,43.4329966 C136.618804,27.7659614 123.733471,15.0653199 107.838608,15.0653199 C91.9437455,15.0653199 79.0584132,27.7659614 79.0584132,43.4329966 C79.0584132,48.0898893 80.1968644,52.4846937 82.2144084,56.3617687 C82.7610829,57.2164381 83.2783595,58.0912079 83.764839,58.984699 Z M68.9861883,63.9419003 C63.8431404,56.2228159 54.9816564,51.1259259 44.9124188,51.1259259 C29.0175559,51.1259259 16.1322236,63.8265674 16.1322236,79.4936027 C16.1322236,95.160638 29.0175559,107.861279 44.9124188,107.861279 C54.7683176,107.861279 63.4670983,102.978079 68.6543044,95.5323874 C69.3421576,94.2026088 70.0974706,92.9123954 70.915798,91.6661288 C72.6962218,87.977549 73.6926141,83.8502679 73.6926141,79.4936027 C73.6926141,74.83671 72.5541628,70.4419056 70.5366189,66.5648306 C69.9899435,65.7101597 69.4726673,64.8353906 68.9861883,63.9419003 Z" id="Combined-Shape"></path>
                        </g>
                    </g>
                </g>
            </g>
        </g>
    </g>
</svg>