<?xml version="1.0" encoding="UTF-8"?>
<svg width="251px" height="240px" viewBox="0 0 251 240" version="1.1" xmlns="http://www.w3.org/2000/svg" xmlns:xlink="http://www.w3.org/1999/xlink">
    <!-- Generator: Sketch 52.2 (67145) - http://www.bohemiancoding.com/sketch -->
    <title>4</title>
    <desc>Created with Sketch.</desc>
    <g id="页面-1" stroke="none" stroke-width="1" fill="none" fill-rule="evenodd">
        <g id="BOS-logo" transform="translate(-549.000000, -660.000000)" fill="#228BE9">
            <g id="分组-7" transform="translate(160.000000, 180.000000)">
                <g id="分组-6" transform="translate(389.000000, 480.000000)">
                    <path d="M14.3069393,217.036082 C16.4645496,217.036082 18.1426657,216.735398 19.3413381,216.134021 C21.2249661,215.188999 22.166766,213.487985 22.166766,211.030928 C22.166766,208.556689 21.1650334,206.890039 19.1615382,206.030928 C18.0313614,205.549826 16.3532452,205.309278 14.1271394,205.309278 L5.00871306,205.309278 L5.00871306,217.036082 L14.3069393,217.036082 Z M16.0278818,234.510309 C19.1615538,234.510309 21.3961881,233.599665 22.7318516,231.778351 C23.5709222,230.627142 23.9904513,229.235403 23.9904513,227.603093 C23.9904513,224.853938 22.7661114,222.981105 20.317395,221.984536 C19.0159793,221.451887 17.2950541,221.185567 15.1545677,221.185567 L5.00871306,221.185567 L5.00871306,234.510309 L16.0278818,234.510309 Z M0,201.030928 L16.2076817,201.030928 C20.6256456,201.030928 23.7678325,202.353939 25.6343366,205 C26.7302656,206.563582 27.2782219,208.367687 27.2782219,210.412371 C27.2782219,212.800699 26.6018383,214.759443 25.2490509,216.28866 C24.5469714,217.096224 23.536677,217.835048 22.2181374,218.505155 C24.1531371,219.24399 25.6000842,220.077315 26.5590221,221.005155 C28.2542873,222.654647 29.1019071,224.931257 29.1019071,227.835052 C29.1019071,230.274926 28.3399054,232.482808 26.8158791,234.458763 C24.5384016,237.414104 20.916753,238.891753 15.9508247,238.891753 L0,238.891753 L0,201.030928 Z M50.57981,200 C57.2410036,200 62.1726102,202.147745 65.3747778,206.443299 C67.8748659,209.793831 69.1248911,214.08073 69.1248911,219.304124 C69.1248911,224.957073 67.6950677,229.656339 64.8353779,233.402062 C61.4790953,237.800709 56.6930396,240 50.4770671,240 C44.6720681,240 40.1086196,238.075621 36.7865848,234.226804 C33.8241517,230.515445 32.3429573,225.824771 32.3429573,220.154639 C32.3429573,215.034339 33.6101062,210.652939 36.1444421,207.010309 C39.3979814,202.336746 44.2097225,200 50.57981,200 Z M51.0935241,235.412371 C55.5971075,235.412371 58.8548788,233.792972 60.866936,230.554124 C62.8789932,227.315276 63.8850067,223.591086 63.8850067,219.381443 C63.8850067,214.931249 62.7248805,211.348811 60.4045933,208.634021 C58.0843061,205.91923 54.9121528,204.561856 50.8880385,204.561856 C46.9837913,204.561856 43.7987954,205.906344 41.3329551,208.595361 C38.8671148,211.284378 37.6342132,215.249115 37.6342132,220.489691 C37.6342132,224.682152 38.6915976,228.21734 40.8063981,231.095361 C42.9211986,233.973382 46.3502063,235.412371 51.0935241,235.412371 Z M77.6315114,226.675258 C77.7513787,228.823035 78.2565259,230.567004 79.1469682,231.907216 C80.8422334,234.41582 83.8303076,235.670103 88.1112803,235.670103 C90.0291561,235.670103 91.7757668,235.395192 93.3511647,234.845361 C96.3992173,233.780063 97.9232207,231.872866 97.9232207,229.123711 C97.9232207,227.061845 97.2810845,225.592788 95.9967926,224.716495 C94.6953769,223.857384 92.6576645,223.109969 89.8835941,222.474227 L84.7721383,221.314433 C81.4329795,220.558415 79.069918,219.72509 77.6828829,218.814433 C75.2855381,217.233669 74.0868837,214.87115 74.0868837,211.726804 C74.0868837,208.324725 75.2598527,205.532657 77.6058257,203.350515 C79.9517988,201.168374 83.2737838,200.07732 87.5718804,200.07732 C91.5274992,200.07732 94.8880124,201.035214 97.6535208,202.951031 C100.419029,204.866848 101.801763,207.929532 101.801763,212.139175 L96.9985353,212.139175 C96.7416769,210.111674 96.1937206,208.556706 95.3546499,207.474227 C93.7963759,205.498272 91.1507744,204.510309 87.4177662,204.510309 C84.4039614,204.510309 82.2378217,205.146042 80.9192821,206.417526 C79.6007425,207.68901 78.9414825,209.166658 78.9414825,210.850515 C78.9414825,212.706195 79.7120461,214.06357 81.2531963,214.92268 C82.2635058,215.472511 84.549511,216.15979 88.1112803,216.984536 L93.4025361,218.195876 C95.9539959,218.780072 97.9232138,219.579033 99.310249,220.592784 C101.707594,222.362552 102.906248,224.931255 102.906248,228.298969 C102.906248,232.49143 101.386526,235.489682 98.3470349,237.293814 C95.3075443,239.097947 91.7757948,240 87.7516804,240 C83.0597343,240 79.3867148,238.797263 76.7325117,236.391753 C74.0783086,234.003424 72.7769124,230.764625 72.828284,226.675258 L77.6315114,226.675258 Z M124.358465,200 C129.136031,200 132.843298,201.262874 135.480377,203.78866 C138.117456,206.314446 139.581527,209.183833 139.872633,212.396907 L134.889605,212.396907 C134.324517,209.957032 133.198638,208.024062 131.511935,206.597938 C129.825232,205.171814 127.457889,204.458763 124.409837,204.458763 C120.693952,204.458763 117.693035,205.768887 115.406996,208.389175 C113.120957,211.009463 111.977954,215.025746 111.977954,220.438144 C111.977954,224.871156 113.009653,228.466481 115.073082,231.224227 C117.136511,233.981973 120.214484,235.360825 124.307094,235.360825 C128.07435,235.360825 130.942559,233.908949 132.911806,231.005155 C133.956363,229.475937 134.735489,227.465648 135.249205,224.974227 L140.232233,224.974227 C139.787012,228.960501 138.314379,232.302392 135.814291,235 C132.81761,238.247439 128.776432,239.871134 123.690637,239.871134 C119.306921,239.871134 115.625339,238.539532 112.645782,235.876289 C108.724411,232.353934 106.763755,226.915844 106.763755,219.561856 C106.763755,213.977635 108.236388,209.398643 111.181697,205.824742 C114.366741,201.941561 118.758953,200 124.358465,200 Z M161.812878,200 C168.474072,200 173.405679,202.147745 176.607846,206.443299 C179.107934,209.793831 180.35796,214.08073 180.35796,219.304124 C180.35796,224.957073 178.928136,229.656339 176.068446,233.402062 C172.712164,237.800709 167.926108,240 161.710136,240 C155.905137,240 151.341688,238.075621 148.019653,234.226804 C145.05722,230.515445 143.576026,225.824771 143.576026,220.154639 C143.576026,215.034339 144.843175,210.652939 147.377511,207.010309 C150.63105,202.336746 155.442791,200 161.812878,200 Z M162.326593,235.412371 C166.830176,235.412371 170.087947,233.792972 172.100004,230.554124 C174.112062,227.315276 175.118075,223.591086 175.118075,219.381443 C175.118075,214.931249 173.957949,211.348811 171.637662,208.634021 C169.317374,205.91923 166.145221,204.561856 162.121107,204.561856 C158.21686,204.561856 155.031864,205.906344 152.566024,208.595361 C150.100183,211.284378 148.867282,215.249115 148.867282,220.489691 C148.867282,224.682152 149.924666,228.21734 152.039467,231.095361 C154.154267,233.973382 157.583275,235.412371 162.326593,235.412371 Z M203.068776,218.376289 C205.466121,218.376289 207.362564,217.895194 208.758161,216.93299 C210.153758,215.970786 210.851546,214.235408 210.851546,211.726804 C210.851546,209.029196 209.875499,207.190727 207.923375,206.21134 C206.878818,205.695874 205.483242,205.438144 203.736605,205.438144 L191.253351,205.438144 L191.253351,218.376289 L203.068776,218.376289 Z M186.141895,201.030928 L203.608176,201.030928 C206.48499,201.030928 208.856613,201.451886 210.723117,202.293814 C214.267763,203.908943 216.040059,206.890013 216.040059,211.237113 C216.040059,213.505166 215.57344,215.360818 214.640188,216.804124 C213.706936,218.24743 212.401259,219.407212 210.723117,220.283505 C212.195772,220.884883 213.304527,221.675253 214.049417,222.654639 C214.794306,223.634026 215.209554,225.223357 215.295173,227.42268 L216.040059,238.891753 L211.101579,238.94383 L210.235089,228.324742 C210.115222,225.850503 209.199107,224.192444 207.486718,223.350515 C206.510656,222.886596 204.978091,222.654639 202.888976,222.654639 L191.253351,222.654639 L191.253351,238.891753 L186.141895,238.891753 L186.141895,201.030928 Z M223.082594,201.030928 L250.591987,201.030928 L250.591987,205.670103 L228.065621,205.670103 L228.065621,217.164948 L248.89673,217.164948 L248.89673,221.546392 L228.065621,221.546392 L228.065621,234.381443 L250.977273,234.381443 L250.977273,238.891753 L223.082594,238.891753 L223.082594,201.030928 Z" id="BOSCORE-Copy"></path>
                    <g id="Group-Copy-2" transform="translate(32.000000, 0.000000)" fill-rule="nonzero">
                        <path d="M82.9170129,58.984699 C87.762666,66.2574303 95.9091541,71.2024541 105.256633,71.7500247 L105.2454,71.8379412 C105.856333,71.813177 106.470476,71.8006734 107.087581,71.8006734 C131.423784,71.8006734 151.152174,91.2462884 151.152174,115.23367 C151.152174,139.221052 131.423784,158.666667 107.087581,158.666667 C87.0484557,158.666667 70.1335868,145.481865 64.7849919,127.433277 C69.857194,124.94677 74.4579231,121.665829 78.4195696,117.755662 C79.7142601,132.241308 92.0549892,143.601347 107.087581,143.601347 C122.982444,143.601347 135.867776,130.900705 135.867776,115.23367 C135.867776,99.5666348 122.982444,86.8659933 107.087581,86.8659933 C97.2316824,86.8659933 88.5329017,91.7491937 83.3456956,99.1948853 C76.0597595,113.280278 61.2050672,122.926599 44.0645927,122.926599 C19.7283902,122.926599 0,103.480984 0,79.4936027 C0,55.506221 19.7283902,36.0606061 44.0645927,36.0606061 C50.8586197,36.0606061 57.2935233,37.5761572 63.0403066,40.2829782 C64.6776005,17.7660864 83.7292749,0 106.990782,0 C131.326985,0 151.055375,19.445615 151.055375,43.4329966 C151.055375,54.3136939 146.996185,64.2599055 140.289009,71.8806543 C136.680964,68.2844435 132.477595,65.2697183 127.836556,62.9918714 C132.753027,57.9026136 135.770978,51.0151935 135.770978,43.4329966 C135.770978,27.7659614 122.885645,15.0653199 106.990782,15.0653199 C91.0959194,15.0653199 78.2105871,27.7659614 78.2105871,43.4329966 C78.2105871,48.0898893 79.3490384,52.4846937 81.3665823,56.3617687 C81.9132568,57.2164381 82.4305334,58.0912079 82.9170129,58.984699 Z M68.1383622,63.9419003 C62.9953143,56.2228159 54.1338304,51.1259259 44.0645927,51.1259259 C28.1697298,51.1259259 15.2843975,63.8265674 15.2843975,79.4936027 C15.2843975,95.160638 28.1697298,107.861279 44.0645927,107.861279 C53.9204915,107.861279 62.6192723,102.978079 67.8064783,95.5323874 C68.4943315,94.2026088 69.2496445,92.9123954 70.0679719,91.6661288 C71.8483957,87.977549 72.844788,83.8502679 72.844788,79.4936027 C72.844788,74.83671 71.7063367,70.4419056 69.6887928,66.5648306 C69.1421174,65.7101597 68.6248412,64.8353906 68.1383622,63.9419003 Z" id="Combined-Shape"></path>
                    </g>
                </g>
            </g>
        </g>
    </g>
</svg>